<?xml version="1.0" encoding="iso-8859-1"?>
<!-- Generator: Adobe Illustrator 19.0.0, SVG Export Plug-In . SVG Version: 6.00 Build 0)  -->
<svg version="1.1" id="Capa_1" xmlns="http://www.w3.org/2000/svg" xmlns:xlink="http://www.w3.org/1999/xlink" x="0px" y="0px"
	 viewBox="0 0 511.999 511.999" style="enable-background:new 0 0 511.999 511.999;" xml:space="preserve">
<g>
	<g>
		<path d="M237.451,126.347c-1.861-1.859-4.441-2.93-7.07-2.93c-2.64,0-5.22,1.07-7.08,2.93c-1.86,1.86-2.93,4.43-2.93,7.07
			c0,2.63,1.07,5.21,2.93,7.07c1.87,1.86,4.44,2.93,7.08,2.93c2.63,0,5.2-1.07,7.07-2.93c1.86-1.86,2.93-4.44,2.93-7.07
			C240.38,130.777,239.311,128.207,237.451,126.347z"/>
	</g>
</g>
<g>
	<g>
		<path d="M477.986,81.466c-18.747,0-33.998,15.252-33.998,33.998c0,5.738,1.434,11.144,3.955,15.89l-26.667,26.667H291.304
			c-5.523,0-9.999,4.477-9.999,9.999c0,5.523,4.477,9.999,9.999,9.999h134.113c2.652,0,5.196-1.054,7.071-2.929l29.592-29.592
			c4.75,2.526,10.162,3.963,15.906,3.963c18.747,0,33.998-15.251,33.998-33.998C511.984,96.717,496.733,81.466,477.986,81.466z
			 M477.986,129.463c-7.72,0-13.999-6.28-13.999-13.999c0-7.719,6.28-13.999,13.999-13.999s13.999,6.28,13.999,13.999
			S485.706,129.463,477.986,129.463z"/>
	</g>
</g>
<g>
	<g>
		<path d="M298.377,336.935c-1.86-1.86-4.44-2.92-7.07-2.92s-5.21,1.06-7.07,2.92c-1.87,1.87-2.93,4.44-2.93,7.08
			c0,2.63,1.06,5.2,2.93,7.07c1.86,1.86,4.44,2.93,7.07,2.93c2.63,0.001,5.21-1.07,7.07-2.93s2.93-4.44,2.93-7.07
			C301.307,341.374,300.237,338.794,298.377,336.935z"/>
	</g>
</g>
<g>
	<g>
		<path d="M477.986,362.569c-5.744,0-11.156,1.437-15.906,3.963l-29.592-29.592c-1.875-1.875-4.419-2.929-7.071-2.929h-93.014
			c-5.523,0-9.999,4.477-9.999,9.999c0,5.523,4.477,9.999,9.999,9.999h88.872l26.667,26.667c-2.52,4.746-3.954,10.152-3.954,15.889
			c0,18.747,15.251,33.998,33.998,33.998c18.747,0,33.998-15.251,33.998-33.998C511.984,377.819,496.732,362.569,477.986,362.569z
			 M477.986,410.566c-7.72,0-13.999-6.28-13.999-13.999c0-7.72,6.28-13.999,13.999-13.999s13.999,6.28,13.999,13.999
			C491.985,404.286,485.705,410.566,477.986,410.566z"/>
	</g>
</g>
<g>
	<g>
		<path d="M423.991,444.004c-4.756,0-9.285,0.986-13.399,2.757l-30.401-55.456c-1.755-3.202-5.117-5.193-8.768-5.193H264.999
			c-5.523,0-9.999,4.477-9.999,9.999c0,5.523,4.477,9.999,9.999,9.999h100.502l29.601,53.995
			c-3.234,5.202-5.109,11.332-5.109,17.895c0,18.747,15.251,33.998,33.998,33.998c18.747,0,33.998-15.251,33.998-33.998
			C457.989,459.254,442.737,444.004,423.991,444.004z M423.991,492.001c-7.72,0-13.999-6.28-13.999-13.999
			s6.28-13.999,13.999-13.999s13.999,6.28,13.999,13.999S431.71,492.001,423.991,492.001z"/>
	</g>
</g>
<g>
	<g>
		<path d="M423.99,0c-18.747,0-33.998,15.251-33.998,33.998c0,6.556,1.87,12.68,5.097,17.878l-29.571,53.589H264.999
			c-5.523,0-9.999,4.477-9.999,9.999c0,5.523,4.477,9.999,9.999,9.999h106.424c3.642,0,6.996-1.98,8.755-5.168l30.387-55.069
			c4.122,1.779,8.659,2.769,13.426,2.769c18.747,0,33.998-15.251,33.998-33.998C457.988,15.251,442.737,0,423.99,0z M423.991,47.997
			c-7.72,0-13.999-6.28-13.999-13.999s6.28-13.999,13.999-13.999s13.999,6.28,13.999,13.999S431.711,47.997,423.991,47.997z"/>
	</g>
</g>
<g>
	<g>
		<path d="M477.986,222.16c-15.267,0-28.215,10.117-32.495,23.999H240.375v-67.083c0-5.523-4.477-9.999-9.999-9.999
			c-5.523,0-9.999,4.477-9.999,9.999v76.802c-0.003,0.094-0.014,0.186-0.014,0.28s0.012,0.186,0.014,0.28v167.478
			c0,24.307-19.776,44.082-44.082,44.082c-17.434,0-33.257-10.301-40.313-26.244l-0.433-0.979
			c10.338-4.372,19.611-11.13,27.007-19.84c2.165,0.498,4.416,0.771,6.73,0.771c16.541,0,29.998-13.457,29.998-29.998
			c0-16.541-13.457-29.998-29.998-29.998s-29.998,13.457-29.998,29.998c0,6.871,2.327,13.204,6.228,18.268
			c-9.834,10.448-23.589,16.518-38.159,16.518c-28.897,0-52.407-23.51-52.407-52.407c0-11.079,3.37-21.546,9.757-30.451
			c7.059-1.608,13.743-4.649,19.599-8.923c5.925,4.287,13.194,6.824,21.05,6.824c19.85,0,35.998-16.148,35.998-35.998
			c0-19.85-16.148-35.998-35.998-35.998s-35.998,16.148-35.998,35.998c0,4.756,0.936,9.294,2.618,13.454
			c-5.504,3.889-12.05,5.981-18.965,5.981c-18.195,0-32.998-14.803-32.998-32.998V191.958c0-18.195,14.803-32.998,32.998-32.998
			c15.494,0,28.521,10.737,32.05,25.16c-11.14,4.384-19.051,15.242-19.051,27.92c0,16.541,13.457,29.998,29.998,29.998
			c16.541,0,29.998-13.457,29.998-29.998c0-13.287-8.686-24.576-20.676-28.507c-2.817-17.556-14.286-32.252-29.882-39.573
			c-4.569-5.627-7.07-12.632-7.07-19.932c0-17.456,14.201-31.657,31.657-31.657c4.532,0,8.951,0.966,13.016,2.802
			c0.749,9.197,4.149,17.87,9.827,25.11c-1.297,3.596-2.008,7.469-2.008,11.506c0,18.747,15.251,33.998,33.998,33.998
			c18.747,0,33.998-15.251,33.998-33.998c0-18.747-15.251-33.998-33.998-33.998c-7.042,0-13.589,2.152-19.021,5.833
			c-1.937-3.776-2.968-7.981-2.968-12.335v-3.54c0-24.122,19.625-43.747,43.747-43.747c24.123,0,43.747,19.625,43.747,43.747
			c0,5.523,4.477,9.999,9.999,9.999s9.999-4.477,9.999-9.999c0-35.15-28.596-63.746-63.746-63.746
			c-30.563,0-56.162,21.625-62.324,50.375c-4.605-1.321-9.398-2.006-14.269-2.006c-28.483,0-51.656,23.173-51.656,51.656
			c0,5.135,0.769,10.177,2.228,14.994c-28.109,1.261-50.592,24.518-50.592,52.935v100.016c0,25.319,17.853,46.537,41.628,51.756
			c-4.363,9.464-6.694,19.841-6.694,30.357c0,39.925,32.481,72.406,72.406,72.406c2.903,0,5.782-0.177,8.624-0.518l1.713,3.872
			c10.255,23.176,33.257,38.151,58.6,38.151c35.335,0,64.081-28.747,64.081-64.081v-157.76H445.49
			c4.281,13.881,17.228,23.999,32.495,23.999c18.747,0,33.998-15.251,33.998-33.998C511.983,237.411,496.732,222.16,477.986,222.16z
			 M169.285,381.708c5.514,0,9.999,4.486,9.999,9.999s-4.486,9.999-9.999,9.999s-9.999-4.486-9.999-9.999
			S163.771,381.708,169.285,381.708z M105.356,289.538c8.821,0,15.999,7.178,15.999,15.999c0,8.821-7.178,15.999-15.999,15.999
			s-15.999-7.178-15.999-15.999C89.357,296.716,96.534,289.538,105.356,289.538z M96.009,202.042c5.514,0,9.999,4.486,9.999,9.999
			c0,5.514-4.486,9.999-9.999,9.999s-9.999-4.486-9.999-9.999C86.01,206.528,90.496,202.042,96.009,202.042z M154.87,117.79
			c7.72,0,13.999,6.28,13.999,13.999s-6.28,13.999-13.999,13.999s-13.999-6.28-13.999-13.999S147.151,117.79,154.87,117.79z
			 M477.986,270.157c-7.72,0-13.999-6.28-13.999-13.999s6.28-13.999,13.999-13.999s13.999,6.28,13.999,13.999
			S485.705,270.157,477.986,270.157z"/>
	</g>
</g>
<g>
</g>
<g>
</g>
<g>
</g>
<g>
</g>
<g>
</g>
<g>
</g>
<g>
</g>
<g>
</g>
<g>
</g>
<g>
</g>
<g>
</g>
<g>
</g>
<g>
</g>
<g>
</g>
<g>
</g>
</svg>
