<?xml version="1.0" encoding="iso-8859-1"?>
<!-- Generator: Adobe Illustrator 19.0.0, SVG Export Plug-In . SVG Version: 6.00 Build 0)  -->
<svg version="1.1" id="Capa_1" xmlns="http://www.w3.org/2000/svg" xmlns:xlink="http://www.w3.org/1999/xlink" x="0px" y="0px"
	 viewBox="0 0 512 512" style="enable-background:new 0 0 512 512;" xml:space="preserve">
<g>
	<g>
		<path d="M351.475,308.001c0.903-2.591,1.585-5.299,2.02-8.106l20.937-117.819l0.066-0.402c1.943-12.978-1.852-26.12-10.412-36.058
			c-8.548-9.924-20.958-15.615-34.048-15.615h-11.654c11.008-13.707,17.616-31.092,17.616-50c0-44.112-35.888-80-80-80
			s-80,35.888-80,80c0,18.908,6.608,36.293,17.616,50h-11.654c-13.09,0-25.5,5.691-34.047,15.614
			c-8.561,9.938-12.355,23.081-10.412,36.058l21.003,118.221c0.434,2.808,1.117,5.516,2.019,8.106H0v80h41v124h430V388.001h41v-80
			H351.475z M256,30.001c27.57,0,50,22.43,50,50s-22.43,50-50,50s-50-22.43-50-50S228.43,30.001,256,30.001z M274.133,181.004
			l-8.457,67.659L256,259.952l-9.676-11.288l-8.457-67.659l18.133-16L274.133,181.004z M170.645,165.195
			c2.885-3.349,6.904-5.193,11.317-5.193h34.366l-10.196,8.996l11.543,92.341L256,306.05l38.324-44.712l11.543-92.341l-10.196-8.996
			h34.367c4.413,0,8.433,1.844,11.317,5.193c2.86,3.322,4.099,7.53,3.496,11.868l-20.927,117.765l-0.066,0.403
			c-1.107,7.4-7.328,12.771-14.789,12.771H202.931c-7.461,0-13.682-5.371-14.789-12.771l-20.993-118.167
			C166.546,172.725,167.785,168.517,170.645,165.195z M441,482.001H71v-94h370V482.001z M482,358.001H30v-20h452V358.001z"/>
	</g>
</g>
<g>
</g>
<g>
</g>
<g>
</g>
<g>
</g>
<g>
</g>
<g>
</g>
<g>
</g>
<g>
</g>
<g>
</g>
<g>
</g>
<g>
</g>
<g>
</g>
<g>
</g>
<g>
</g>
<g>
</g>
</svg>
