<?xml version="1.0" encoding="iso-8859-1"?>
<!-- Generator: Adobe Illustrator 19.0.0, SVG Export Plug-In . SVG Version: 6.00 Build 0)  -->
<svg version="1.1" id="Layer_1" xmlns="http://www.w3.org/2000/svg" xmlns:xlink="http://www.w3.org/1999/xlink" x="0px" y="0px"
	 viewBox="0 0 512 512" style="enable-background:new 0 0 512 512;" xml:space="preserve">
<g>
	<g>
		<g>
			<path d="M230.406,307.2h221.867c14.114,0,25.6-11.486,25.6-25.6V76.8c0-2.261-0.896-4.437-2.5-6.033L432.706,28.1
				c-3.337-3.337-8.73-3.337-12.066,0c-3.336,3.337-3.336,8.73,0,12.066l40.166,40.166V281.6c0,4.702-3.831,8.533-8.533,8.533
				H230.406c-4.702,0-8.533-3.831-8.533-8.533v-256c0-4.702,3.831-8.533,8.533-8.533H392.54v42.667c0,14.114,11.486,25.6,25.6,25.6
				h17.067c4.71,0,8.533-3.823,8.533-8.533s-3.823-8.533-8.533-8.533H418.14c-4.702,0-8.533-3.831-8.533-8.533v-51.2
				c0-4.71-3.823-8.533-8.533-8.533H230.406c-14.114,0-25.6,11.486-25.6,25.6v256C204.806,295.714,216.292,307.2,230.406,307.2z"/>
			<path d="M401.073,119.467H281.606c-4.71,0-8.533,3.823-8.533,8.533s3.823,8.533,8.533,8.533h119.467
				c4.71,0,8.533-3.823,8.533-8.533S405.783,119.467,401.073,119.467z"/>
			<path d="M281.606,187.733h102.4c4.71,0,8.533-3.823,8.533-8.533s-3.823-8.533-8.533-8.533h-102.4
				c-4.71,0-8.533,3.823-8.533,8.533S276.896,187.733,281.606,187.733z"/>
			<path d="M281.606,238.933h119.467c4.71,0,8.533-3.823,8.533-8.533s-3.823-8.533-8.533-8.533H281.606
				c-4.71,0-8.533,3.823-8.533,8.533S276.896,238.933,281.606,238.933z"/>
			<path d="M59.74,273.067H8.54c-4.71,0-8.533,3.823-8.533,8.533s3.823,8.533,8.533,8.533h51.2c4.702,0,8.533,3.831,8.533,8.533
				V486.4c0,4.702-3.831,8.533-8.533,8.533H8.54c-4.71,0-8.533,3.823-8.533,8.533S3.829,512,8.54,512h51.2
				c14.114,0,25.6-11.486,25.6-25.6V298.667C85.34,284.553,73.854,273.067,59.74,273.067z"/>
			<path d="M507.432,358.4c-4.557-7.893-11.921-13.542-20.727-15.898c-8.815-2.372-18.014-1.161-25.361,3.123l-98.219,47.804
				c-15.266,7.637-30.677,7.637-64.452,7.637c-33.024,0-83.422-8.337-83.925-8.414c-4.676-0.785-9.054,2.372-9.822,7.006
				c-0.777,4.651,2.364,9.054,7.006,9.822c2.125,0.358,52.301,8.653,86.741,8.653c35.43,0,53.214,0,72.004-9.395l98.662-48.051
				c3.951-2.287,8.55-2.884,12.945-1.707c4.403,1.186,8.09,4.011,10.359,7.953c4.71,8.149,1.911,18.611-6.477,23.458L370.788,462.2
				c-0.247,0.162-24.849,15.667-80.648,15.667c-48.367,0-123.11-41.182-124.186-41.771c-0.768-0.375-19.277-9.429-55.014-9.429
				c-4.71,0-8.533,3.823-8.533,8.533s3.823,8.533,8.533,8.533c31.036,0,47.027,7.467,47.061,7.467v-0.009
				c3.217,1.792,79.334,43.742,132.139,43.742c61.611,0,88.934-17.749,89.839-18.355l114.961-71.552
				C511.23,395.614,516.836,374.699,507.432,358.4z"/>
			<path d="M42.673,456.533c0-7.057-5.743-12.8-12.8-12.8c-7.057,0-12.8,5.743-12.8,12.8c0,7.057,5.743,12.8,12.8,12.8
				C36.93,469.333,42.673,463.59,42.673,456.533z"/>
			<path d="M281.606,85.333h51.2c4.71,0,8.533-3.823,8.533-8.533s-3.823-8.533-8.533-8.533h-51.2c-4.71,0-8.533,3.823-8.533,8.533
				S276.896,85.333,281.606,85.333z"/>
			<path d="M110.94,324.267h68.267c9.958,0,26.88,12.698,41.813,23.893c18.722,14.046,36.412,27.307,52.053,27.307h51.2
				c12.962,0,19.396,5.879,19.567,6.033c1.664,1.664,3.849,2.5,6.033,2.5c2.185,0,4.369-0.836,6.033-2.5
				c3.336-3.337,3.336-8.73,0-12.066c-1.126-1.126-11.605-11.034-31.633-11.034h-51.2c-9.958,0-26.88-12.698-41.813-23.893
				c-18.722-14.046-36.412-27.307-52.053-27.307H110.94c-4.71,0-8.533,3.823-8.533,8.533S106.229,324.267,110.94,324.267z"/>
		</g>
	</g>
</g>
<g>
</g>
<g>
</g>
<g>
</g>
<g>
</g>
<g>
</g>
<g>
</g>
<g>
</g>
<g>
</g>
<g>
</g>
<g>
</g>
<g>
</g>
<g>
</g>
<g>
</g>
<g>
</g>
<g>
</g>
</svg>
