<?xml version="1.0" encoding="iso-8859-1"?>
<!-- Generator: Adobe Illustrator 19.0.0, SVG Export Plug-In . SVG Version: 6.00 Build 0)  -->
<svg version="1.1" id="Layer_1" xmlns="http://www.w3.org/2000/svg" xmlns:xlink="http://www.w3.org/1999/xlink" x="0px" y="0px"
	 viewBox="0 0 511.948 511.948" style="enable-background:new 0 0 511.948 511.948;" xml:space="preserve">
<g>
	<g>
		<g>
			<path d="M315.688,187.664c4.71,0,8.533-3.823,8.533-8.533l-0.008-17.067c-0.009-4.71-3.823-8.525-8.533-8.525h-0.009
				c-4.71,0-8.533,3.823-8.525,8.533l0.009,17.067C307.155,183.85,310.969,187.664,315.688,187.664z"/>
			<path d="M260.972,190.284c1.263,3.465,4.531,5.615,8.013,5.615c0.973,0,1.963-0.162,2.918-0.521
				c4.429-1.613,6.707-6.502,5.094-10.931l-5.837-16.034c-1.613-4.429-6.528-6.724-10.94-5.094
				c-4.429,1.613-6.707,6.502-5.094,10.931L260.972,190.284z"/>
			<path d="M359.473,195.387c0.964,0.35,1.946,0.521,2.91,0.521c3.49,0,6.767-2.159,8.021-5.623l5.828-16.043
				c1.604-4.429-0.683-9.318-5.111-10.931c-4.412-1.613-9.318,0.683-10.931,5.111l-5.828,16.034
				C352.757,188.884,355.044,193.782,359.473,195.387z"/>
			<path d="M221.386,216.558c1.69,2.014,4.105,3.046,6.537,3.046c1.937,0,3.883-0.649,5.487-1.997
				c3.601-3.029,4.079-8.414,1.041-12.023l-10.974-13.065c-3.029-3.61-8.405-4.079-12.023-1.05
				c-3.61,3.029-4.079,8.414-1.041,12.023L221.386,216.558z"/>
			<path d="M162.933,297.403l16.802,2.961c0.495,0.085,0.99,0.128,1.485,0.128c4.062,0,7.663-2.918,8.397-7.057
				c0.811-4.642-2.287-9.062-6.929-9.882l-16.802-2.961c-4.634-0.828-9.062,2.278-9.882,6.929
				C155.193,292.163,158.291,296.583,162.933,297.403z"/>
			<path d="M46.999,191.82C7.08,151.892,7.08,86.928,46.999,47.001c39.936-39.927,104.9-39.919,144.811-0.009l63.778,64.043
				c3.328,3.337,8.738,3.354,12.066,0.026c3.337-3.328,3.345-8.73,0.026-12.075l-63.795-64.051
				c-46.575-46.575-122.368-46.583-168.951,0c-46.575,46.583-46.575,122.368,0,168.951l63.915,63.915
				c1.664,1.664,3.849,2.5,6.033,2.5c2.185,0,4.369-0.836,6.033-2.5c3.337-3.336,3.337-8.738,0-12.066L46.999,191.82z"/>
			<path d="M441.742,293.452c0.734,4.139,4.326,7.049,8.397,7.049c0.486,0,0.99-0.043,1.485-0.128l16.802-2.97
				c4.642-0.819,7.74-5.248,6.921-9.89s-5.274-7.74-9.89-6.921l-16.794,2.97C444.021,284.381,440.923,288.81,441.742,293.452z"/>
			<path d="M130.011,215.449c3.362-3.294,3.413-8.704,0.111-12.066l-46.916-47.77c-19.959-19.959-19.959-52.446,0-72.405
				c19.968-19.968,52.454-19.959,72.465,0.051l47.804,46.95c3.362,3.294,8.755,3.251,12.066-0.111
				c3.302-3.362,3.251-8.764-0.111-12.066l-47.744-46.891c-26.615-26.615-69.931-26.615-96.546,0s-26.615,69.922-0.051,96.486
				l46.857,47.718c1.673,1.698,3.874,2.551,6.084,2.551C126.188,217.898,128.347,217.087,130.011,215.449z"/>
			<path d="M433.934,255.939c1.451,0,2.918-0.367,4.258-1.143l14.78-8.533c4.079-2.355,5.478-7.578,3.115-11.657
				c-2.355-4.079-7.578-5.495-11.648-3.123l-14.78,8.533c-4.079,2.355-5.478,7.578-3.123,11.657
				C428.115,254.412,430.982,255.939,433.934,255.939z"/>
			<path d="M397.966,217.625c1.604,1.34,3.55,1.988,5.478,1.988c2.44,0,4.864-1.033,6.545-3.046l10.965-13.073
				c3.021-3.618,2.543-9.003-1.058-12.032c-3.627-3.029-9.003-2.551-12.032,1.058l-10.957,13.082
				C393.888,209.211,394.357,214.595,397.966,217.625z"/>
			<path d="M178.387,246.262l14.788,8.525c1.34,0.777,2.807,1.143,4.25,1.143c2.953,0,5.82-1.528,7.398-4.267
				c2.355-4.088,0.956-9.301-3.123-11.657l-14.788-8.525c-4.087-2.364-9.301-0.956-11.648,3.132
				C172.908,238.693,174.308,243.907,178.387,246.262z"/>
			<path d="M189.617,337.893c-0.819-4.642-5.257-7.714-9.89-6.921l-16.802,2.97c-4.642,0.819-7.731,5.239-6.921,9.882
				c0.734,4.147,4.335,7.057,8.397,7.057c0.495,0,0.99-0.043,1.493-0.137l16.802-2.961
				C187.338,346.964,190.427,342.535,189.617,337.893z"/>
			<path d="M315.68,204.748c-61.175,0-110.933,49.758-110.933,110.933c0,61.167,49.758,110.933,110.933,110.933
				c61.167,0,110.933-49.766,110.933-110.933C426.613,254.506,376.846,204.748,315.68,204.748z M315.68,409.548
				c-51.763,0-93.867-42.112-93.867-93.867c0-48.879,37.564-89.105,85.333-93.44v42.24c0,4.71,3.814,8.533,8.533,8.533
				c4.71,0,8.533-3.823,8.533-8.533v-42.24c47.761,4.335,85.333,44.561,85.333,93.44
				C409.546,367.436,367.434,409.548,315.68,409.548z"/>
			<path d="M409.981,414.787c-3.029-3.618-8.414-4.079-12.023-1.058c-3.61,3.029-4.079,8.414-1.05,12.023l10.965,13.073
				c1.69,2.014,4.105,3.046,6.545,3.046c1.937,0,3.883-0.657,5.478-1.997c3.61-3.029,4.079-8.414,1.05-12.015L409.981,414.787z"/>
			<path d="M315.68,119.414c-108.22,0-196.267,88.038-196.267,196.267c0,108.22,88.047,196.267,196.267,196.267
				s196.267-88.047,196.267-196.267C511.946,207.453,423.899,119.414,315.68,119.414z M315.68,494.881
				c-98.816,0-179.2-80.393-179.2-179.2c0-98.816,80.384-179.2,179.2-179.2c98.807,0,179.2,80.384,179.2,179.2
				C494.879,414.489,414.487,494.881,315.68,494.881z"/>
			<path d="M468.426,333.942l-16.802-2.961c-4.668-0.802-9.071,2.278-9.882,6.921c-0.819,4.634,2.278,9.062,6.921,9.882
				l16.794,2.961c0.512,0.094,1.007,0.137,1.493,0.137c4.07,0,7.671-2.918,8.397-7.057
				C476.166,339.182,473.068,334.762,468.426,333.942z"/>
			<path d="M452.972,385.083l-14.78-8.533c-4.096-2.355-9.301-0.956-11.657,3.132c-2.355,4.079-0.956,9.293,3.123,11.657
				l14.78,8.525c1.34,0.777,2.807,1.143,4.258,1.143c2.944,0,5.811-1.527,7.398-4.267
				C458.451,392.66,457.051,387.438,452.972,385.083z"/>
			<path d="M193.158,376.549l-14.771,8.533c-4.087,2.355-5.478,7.578-3.123,11.657c1.579,2.739,4.446,4.267,7.398,4.267
				c1.442,0,2.918-0.367,4.258-1.143l14.771-8.533c4.087-2.355,5.478-7.578,3.123-11.657
				C202.459,375.594,197.228,374.177,193.158,376.549z"/>
			<path d="M370.395,441.061c-1.613-4.437-6.519-6.716-10.931-5.103c-4.429,1.613-6.716,6.502-5.111,10.931l5.837,16.034
				c1.263,3.473,4.531,5.623,8.021,5.623c0.973,0,1.954-0.162,2.918-0.512c4.429-1.613,6.707-6.511,5.103-10.94L370.395,441.061z"/>
			<path d="M233.393,413.729c-3.61-3.029-8.994-2.569-12.023,1.05l-10.965,13.082c-3.029,3.601-2.56,8.986,1.058,12.015
				c1.596,1.34,3.541,1.997,5.478,1.997c2.432,0,4.855-1.033,6.545-3.046l10.965-13.082
				C237.48,422.143,237.002,416.758,233.393,413.729z"/>
			<path d="M315.68,443.681c-4.719,0-8.533,3.814-8.533,8.533v17.067c0,4.71,3.814,8.533,8.533,8.533
				c4.71,0,8.533-3.823,8.533-8.533v-17.067C324.213,447.495,320.39,443.681,315.68,443.681z"/>
			<path d="M271.895,435.95c-4.403-1.587-9.318,0.674-10.94,5.103l-5.828,16.043c-1.613,4.429,0.674,9.327,5.103,10.94
				c0.956,0.35,1.946,0.521,2.91,0.521c3.49,0,6.758-2.159,8.021-5.623l5.837-16.043
				C278.602,442.461,276.324,437.563,271.895,435.95z"/>
		</g>
	</g>
</g>
<g>
</g>
<g>
</g>
<g>
</g>
<g>
</g>
<g>
</g>
<g>
</g>
<g>
</g>
<g>
</g>
<g>
</g>
<g>
</g>
<g>
</g>
<g>
</g>
<g>
</g>
<g>
</g>
<g>
</g>
</svg>
