<?xml version="1.0" encoding="iso-8859-1"?>
<!-- Generator: Adobe Illustrator 19.0.0, SVG Export Plug-In . SVG Version: 6.00 Build 0)  -->
<svg version="1.1" id="Layer_1" xmlns="http://www.w3.org/2000/svg" xmlns:xlink="http://www.w3.org/1999/xlink" x="0px" y="0px"
	 viewBox="0 0 512 512" style="enable-background:new 0 0 512 512;" xml:space="preserve">
<g>
	<g>
		<g>
			<path d="M55.467,443.733c-7.057,0-12.8,5.743-12.8,12.8c0,7.057,5.743,12.8,12.8,12.8s12.8-5.743,12.8-12.8
				C68.267,449.476,62.524,443.733,55.467,443.733z"/>
			<path d="M55.467,42.667c-7.057,0-12.8,5.743-12.8,12.8s5.743,12.8,12.8,12.8s12.8-5.743,12.8-12.8S62.524,42.667,55.467,42.667z"
				/>
			<path d="M273.067,358.4h-34.133c-9.412,0-17.067,7.654-17.067,17.067V409.6c0,9.412,7.654,17.067,17.067,17.067h34.133
				c9.412,0,17.067-7.654,17.067-17.067v-34.133C290.133,366.054,282.479,358.4,273.067,358.4z M238.933,409.6v-34.133h34.133
				l0.008,34.133H238.933z"/>
			<path d="M456.533,42.667c-7.057,0-12.8,5.743-12.8,12.8s5.743,12.8,12.8,12.8c7.057,0,12.8-5.743,12.8-12.8
				S463.59,42.667,456.533,42.667z"/>
			<path d="M469.333,0H42.667C19.14,0,0,19.14,0,42.667v426.667C0,492.86,19.14,512,42.667,512h426.667
				C492.86,512,512,492.86,512,469.333V42.667C512,19.14,492.86,0,469.333,0z M494.933,469.333c0,14.114-11.486,25.6-25.6,25.6
				H42.667c-14.114,0-25.6-11.486-25.6-25.6V42.667c0-14.114,11.486-25.6,25.6-25.6h426.667c14.114,0,25.6,11.486,25.6,25.6V469.333
				z"/>
			<path d="M456.533,443.733c-7.057,0-12.8,5.743-12.8,12.8c0,7.057,5.743,12.8,12.8,12.8c7.057,0,12.8-5.743,12.8-12.8
				C469.333,449.476,463.59,443.733,456.533,443.733z"/>
			<path d="M256,85.333c-56.337,0-99.814,36.198-110.771,92.228c-0.794,4.028,1.399,8.038,5.197,9.566l42.667,17.067
				c2.185,0.862,4.625,0.794,6.767-0.188c2.125-0.981,3.763-2.807,4.506-5.043C210.005,182.025,224.23,153.6,256,153.6
				c28.237,0,51.2,22.963,51.2,51.2c0,19.78-13.551,29.636-35.661,44.075c-3.985,2.603-8.064,5.265-12.109,8.081
				c-24.363,16.939-37.564,31.326-37.564,58.778v8.533c0,9.412,7.654,17.067,17.067,17.067h34.133
				c9.574,0,17.067-7.492,17.067-17.067c0-13.005,11.255-21.222,29.619-33.536c24.815-16.648,55.714-37.376,55.714-85.931
				C375.467,138.923,321.877,85.333,256,85.333z M310.238,276.557c-18.27,12.262-37.171,24.943-36.992,47.693
				c0,0-0.051,0.017-0.179,0.017h-34.133v-8.533c0-18.415,6.784-28.459,30.234-44.766c3.908-2.722,7.851-5.291,11.708-7.808
				c21.333-13.926,43.392-28.331,43.392-58.359c0-37.641-30.626-68.267-68.267-68.267c-28.518,0-51.721,17.57-64.666,48.572
				l-27.81-11.127C174.933,129.63,209.801,102.4,256,102.4c56.465,0,102.4,45.935,102.4,102.4
				C358.4,244.25,333.918,260.676,310.238,276.557z"/>
		</g>
	</g>
</g>
<g>
</g>
<g>
</g>
<g>
</g>
<g>
</g>
<g>
</g>
<g>
</g>
<g>
</g>
<g>
</g>
<g>
</g>
<g>
</g>
<g>
</g>
<g>
</g>
<g>
</g>
<g>
</g>
<g>
</g>
</svg>
