<?xml version="1.0" encoding="iso-8859-1"?>
<!-- Generator: Adobe Illustrator 19.0.0, SVG Export Plug-In . SVG Version: 6.00 Build 0)  -->
<svg version="1.1" id="Layer_1" xmlns="http://www.w3.org/2000/svg" xmlns:xlink="http://www.w3.org/1999/xlink" x="0px" y="0px"
	 viewBox="0 0 512.001 512.001" style="enable-background:new 0 0 512.001 512.001;" xml:space="preserve">
<g>
	<g>
		<path d="M457.332,155.892H258.205c-14.409,0-27.122-8.665-32.39-22.076L217,111.377c-8.276-21.066-28.248-34.679-50.883-34.679
			H57.372V38.664h397.255v98.799c0,5.486,4.447,9.934,9.934,9.934c5.488,0,9.934-4.448,9.934-9.934V28.73
			c0-5.486-4.447-9.934-9.934-9.934H47.437c-5.488,0-9.934,4.448-9.934,9.934v50.746C15.745,86.692,0,107.219,0,131.367v58.415
			c0,5.486,4.447,9.934,9.934,9.934c5.488,0,9.934-4.448,9.934-9.934v-58.415c0-19.189,15.612-34.799,34.799-34.799h111.448
			c14.407,0,27.122,8.665,32.39,22.076l8.815,22.44c8.276,21.066,28.248,34.679,50.883,34.679h199.127
			c19.188,0,34.799,15.612,34.799,34.799v232.132c0,16.898-13.748,30.646-30.646,30.646H50.514
			c-16.898-0.001-30.646-13.748-30.646-30.647V225.544c0-5.486-4.447-9.934-9.934-9.934c-5.488,0-9.934,4.448-9.934,9.934v217.148
			c0,27.853,22.66,50.514,50.514,50.514h410.973c27.853,0,50.514-22.66,50.514-50.514v-232.13
			C512,180.417,487.475,155.892,457.332,155.892z"/>
	</g>
</g>
<g>
	<g>
		<path d="M327.182,217.223h-10.656c-5.488,0-9.934,4.448-9.934,9.934v60.896c0,5.486,4.447,9.934,9.934,9.934
			c5.488,0,9.934-4.448,9.934-9.934v-11.387h0.722c16.389,0,29.721-13.332,29.721-29.721
			C356.903,230.556,343.571,217.223,327.182,217.223z M327.182,256.796h-0.722v-19.704h0.722c5.433,0,9.852,4.42,9.852,9.852
			C337.035,252.376,332.615,256.796,327.182,256.796z"/>
	</g>
</g>
<g>
	<g>
		<path d="M206.314,217.223H165.03c-5.488,0-9.934,4.448-9.934,9.934c0,5.486,4.447,9.934,9.934,9.934h10.708v50.962
			c0,5.486,4.447,9.934,9.934,9.934c5.488,0,9.934-4.448,9.934-9.934v-50.962h10.708c5.488,0,9.934-4.448,9.934-9.934
			C216.249,221.671,211.801,217.223,206.314,217.223z"/>
	</g>
</g>
<g>
	<g>
		<path d="M258.626,217.223h-3.304c-15.208,0-27.58,12.373-27.58,27.58v25.604c0,15.208,12.373,27.58,27.58,27.58h3.304
			c15.208,0,27.58-12.373,27.58-27.58v-25.604C286.206,229.594,273.833,217.223,258.626,217.223z M266.338,270.406
			c0,4.252-3.46,7.712-7.712,7.712h-3.303c-4.252,0-7.712-3.46-7.712-7.712v-25.604c0-4.252,3.46-7.712,7.712-7.712h3.303
			c4.252,0,7.712,3.46,7.712,7.712V270.406z"/>
	</g>
</g>
<g>
	<g>
		<path d="M162.668,393.359h-16.164v-10.144h10.945c5.488,0,9.934-4.448,9.934-9.934c0-5.486-4.447-9.934-9.934-9.934h-10.945
			v-11.014h16.164c5.488,0,9.934-4.448,9.934-9.934c0-5.486-4.447-9.934-9.934-9.934H136.57c-5.486,0-9.934,4.448-9.934,9.934
			v60.895c0,5.486,4.447,9.934,9.934,9.934h26.098c5.488,0,9.934-4.448,9.934-9.934
			C172.602,397.807,168.156,393.359,162.668,393.359z"/>
	</g>
</g>
<g>
	<g>
		<path d="M366.271,393.359h-16.164v-10.144h10.945c5.488,0,9.934-4.448,9.934-9.934c0-5.486-4.447-9.934-9.934-9.934h-10.945
			v-11.014h16.164c5.488,0,9.934-4.448,9.934-9.934c0-5.486-4.447-9.934-9.934-9.934h-26.098c-5.488,0-9.934,4.448-9.934,9.934
			v60.895c0,5.486,4.447,9.934,9.934,9.934h26.098c5.488,0,9.934-4.448,9.934-9.934
			C376.205,397.807,371.759,393.359,366.271,393.359z"/>
	</g>
</g>
<g>
	<g>
		<path d="M441.73,332.464h-41.285c-5.488,0-9.934,4.448-9.934,9.934c0,5.486,4.447,9.934,9.934,9.934h10.708v50.961
			c0,5.486,4.448,9.934,9.934,9.934c5.488,0,9.934-4.448,9.934-9.934v-50.961h10.708c5.488,0,9.934-4.448,9.934-9.934
			C451.664,336.912,447.217,332.464,441.73,332.464z"/>
	</g>
</g>
<g>
	<g>
		<path d="M218.245,352.333c3.774,0,7.161,2.247,8.632,5.722c2.137,5.053,7.967,7.418,13.019,5.278
			c5.052-2.138,7.418-7.966,5.278-13.019c-4.587-10.844-15.157-17.85-26.93-17.85c-16.118,0-29.232,13.113-29.232,29.232v22.299
			c0,16.119,13.113,29.232,29.232,29.232c7.808,0,15.149-3.04,20.67-8.562c3.88-3.88,3.88-10.17,0-14.049
			c-3.881-3.88-10.17-3.88-14.05,0c-1.768,1.768-4.118,2.742-6.62,2.742c-5.163,0-9.364-4.2-9.364-9.364v-22.299
			C208.881,356.533,213.082,352.333,218.245,352.333z"/>
	</g>
</g>
<g>
	<g>
		<path d="M311.195,398.615l-9.353-17.518c4.252-5.142,6.811-11.734,6.811-18.912c0.001-16.388-13.332-29.721-29.721-29.721h-10.656
			c-5.488,0-9.934,4.448-9.934,9.934v60.895c0,5.486,4.447,9.934,9.934,9.934s9.934-4.448,9.934-9.934v-11.387h0.722
			c2.001,0,3.957-0.201,5.848-0.58l8.888,16.646c1.789,3.35,5.221,5.257,8.773,5.257c1.578,0,3.179-0.378,4.669-1.172
			C311.95,409.473,313.779,403.454,311.195,398.615z M278.932,372.039h-0.722v-19.704h0.722c5.433,0,9.852,4.42,9.852,9.852
			C288.784,367.62,284.364,372.039,278.932,372.039z"/>
	</g>
</g>
<g>
	<g>
		<path d="M86.216,362.907h-0.725c-2.915,0-5.286-2.372-5.286-5.288c0-2.915,2.371-5.288,5.286-5.288h15.947
			c5.488,0,9.934-4.448,9.934-9.934c0-5.486-4.447-9.934-9.934-9.934H85.491c-13.871,0-25.155,11.285-25.155,25.156
			s11.285,25.156,25.155,25.156h0.724c2.915,0,5.288,2.372,5.288,5.296c0,2.917-2.372,5.288-5.288,5.288H70.27
			c-5.488,0-9.934,4.448-9.934,9.934c0,5.486,4.447,9.934,9.934,9.934h15.945c13.872,0,25.156-11.285,25.156-25.164
			C111.372,374.193,100.087,362.907,86.216,362.907z"/>
	</g>
</g>
<g>
</g>
<g>
</g>
<g>
</g>
<g>
</g>
<g>
</g>
<g>
</g>
<g>
</g>
<g>
</g>
<g>
</g>
<g>
</g>
<g>
</g>
<g>
</g>
<g>
</g>
<g>
</g>
<g>
</g>
</svg>
