<?xml version='1.0' encoding='iso-8859-1'?>
<!DOCTYPE svg PUBLIC '-//W3C//DTD SVG 1.1//EN' 'http://www.w3.org/Graphics/SVG/1.1/DTD/svg11.dtd'>
<svg version="1.1" xmlns="http://www.w3.org/2000/svg" viewBox="0 0 432.614 432.614" xmlns:xlink="http://www.w3.org/1999/xlink" enable-background="new 0 0 432.614 432.614">
  <g>
    <path d="m431.895,213.102c-19.03-40.266-48.9-74.356-86.381-98.586-38.491-24.883-83.17-38.036-129.206-38.036s-90.715,13.152-129.207,38.036c-37.481,24.23-67.351,58.321-86.381,98.586-0.959,2.029-0.959,4.38 0,6.409 19.03,40.266 48.9,74.356 86.381,98.586 38.491,24.883 83.17,38.036 129.207,38.036s90.715-13.153 129.206-38.036c37.481-24.23 67.351-58.32 86.381-98.586 0.959-2.028 0.959-4.38 0-6.409zm-94.525,92.399c-36.06,23.311-77.922,35.633-121.063,35.633-43.141,0-85.003-12.322-121.063-35.633-34.132-22.065-61.531-52.854-79.417-89.194 17.887-36.34 45.285-67.128 79.417-89.194 36.06-23.311 77.922-35.633 121.063-35.633s85.003,12.322 121.063,35.633c34.133,22.065 61.531,52.854 79.417,89.194-17.887,36.34-45.285,67.128-79.417,89.194z"/>
    <path d="m216.307,104.729c-61.524,0-111.578,50.054-111.578,111.578s50.054,111.578 111.578,111.578 111.577-50.054 111.577-111.578-50.053-111.578-111.577-111.578zm0,208.156c-53.253,0-96.578-43.325-96.578-96.578s43.325-96.578 96.578-96.578 96.577,43.325 96.577,96.578-43.324,96.578-96.577,96.578z"/>
    <path d="m216.307,137.159c-43.642,0-79.148,35.505-79.148,79.147s35.506,79.147 79.148,79.147 79.147-35.505 79.147-79.147-35.505-79.147-79.147-79.147zm0,143.295c-34.762,0-63.135-27.8-64.102-62.333h23.495l18.857,18.857c-1.116,2.491-1.751,5.242-1.751,8.143 0,11.028 8.972,20 20,20s20-8.972 20-20-8.972-20-20-20c-2.631,0-5.139,0.524-7.442,1.451l-21.255-21.255c-1.406-1.407-3.314-2.197-5.303-2.197h-25.279c6.098-29.067 31.927-50.962 62.779-50.962 26.817,0 49.83,16.547 59.399,39.962h-24.867c-2.974-7.322-10.153-12.503-18.529-12.503-11.028,0-20,8.972-20,20s8.972,20 20,20c8.374,0 15.551-5.178 18.526-12.497h28.95c0.432,3.001 0.668,6.066 0.668,9.185 0.002,35.373-28.775,64.149-64.146,64.149zm-3.5-40.332c2.757,0 5,2.243 5,5s-2.243,5-5,5-5-2.243-5-5 2.243-5 5-5zm24.504-40.504c0,2.757-2.243,5-5,5s-5-2.243-5-5 2.243-5 5-5 5,2.244 5,5z"/>
  </g>
</svg>
