<?xml version="1.0" encoding="iso-8859-1"?>
<!-- Generator: Adobe Illustrator 19.0.0, SVG Export Plug-In . SVG Version: 6.00 Build 0)  -->
<svg version="1.1" id="Capa_1" xmlns="http://www.w3.org/2000/svg" xmlns:xlink="http://www.w3.org/1999/xlink" x="0px" y="0px"
	 viewBox="0 0 512 512" style="enable-background:new 0 0 512 512;" xml:space="preserve">
<g>
	<g>
		<path d="M499.953,305.293l-41.946-83.894C455.825,83.247,329.898-23.191,188.041,4.37C99.249,21.621,28.509,93.039,12.011,182.085
			c-11.614,62.686,2.329,125.035,39.264,175.562C81.425,398.894,98.031,448.384,98.032,497c0,8.284,6.716,15,15,15h210.002
			c8.284,0,15-6.716,15-15v-39.2c0-4.301,3.499-7.8,7.8-7.8h67.201c24.813,0,45-20.187,45-45v-45h8.108
			c13.196,0,25.217-6.701,32.154-17.927C505.235,330.845,505.855,317.097,499.953,305.293z M472.779,326.299
			c-0.688,1.112-2.71,3.699-6.635,3.699h-23.108c-8.284,0-15,6.716-15,15v60.001c0,8.271-6.729,15-15,15h-67.201
			c-20.843,0-37.8,16.957-37.8,37.8v24.2H127.572c-3.06-49.999-21.279-99.924-52.078-142.055
			c-32.01-43.791-44.079-97.912-33.985-152.393C55.78,110.519,116.967,48.739,193.761,33.819
			C316.887,9.9,428.036,102.624,428.036,224.997c0,2.329,0.542,4.625,1.584,6.708l43.501,87.004
			C474.877,322.22,473.467,325.187,472.779,326.299z"/>
	</g>
</g>
<g>
	<g>
		<path d="M353.034,119.997h-60.001c-8.284,0-15,6.716-15,15s6.716,15,15,15h25.391l-84.59,84.59l-50.195-50.195
			c-2.813-2.813-6.628-4.393-10.606-4.393c-3.978,0-7.794,1.58-10.606,4.393l-90.212,90.212c-5.858,5.858-5.858,15.355,0,21.213
			c5.857,5.856,15.355,5.856,21.212-0.002l79.605-79.605l50.195,50.196c5.857,5.858,15.355,5.858,21.213,0l93.593-93.592v22.183
			c0,8.284,6.716,15,15,15s15-6.716,15-15v-60.001C368.034,126.713,361.318,119.997,353.034,119.997z"/>
	</g>
</g>
<g>
</g>
<g>
</g>
<g>
</g>
<g>
</g>
<g>
</g>
<g>
</g>
<g>
</g>
<g>
</g>
<g>
</g>
<g>
</g>
<g>
</g>
<g>
</g>
<g>
</g>
<g>
</g>
<g>
</g>
</svg>
