<?xml version="1.0" encoding="iso-8859-1"?>
<!-- Generator: Adobe Illustrator 19.0.0, SVG Export Plug-In . SVG Version: 6.00 Build 0)  -->
<svg version="1.1" id="Layer_1" xmlns="http://www.w3.org/2000/svg" xmlns:xlink="http://www.w3.org/1999/xlink" x="0px" y="0px"
	 viewBox="0 0 512.002 512.002" style="enable-background:new 0 0 512.002 512.002;" xml:space="preserve">
<g>
	<g>
		<g>
			<path d="M247.468,324.268c-4.71,0-8.533,3.823-8.533,8.533c0,4.71,3.823,8.533,8.533,8.533h17.067
				c4.71,0,8.533-3.823,8.533-8.533c0-4.71-3.823-8.533-8.533-8.533H247.468z"/>
			<path d="M64.905,84.644c43.665,18.714,63.215,68.19,69.461,88.021c-10.743,4.489-14.899,15.573-14.899,23.603v34.133
				c0,11.52,7.646,21.291,18.133,24.491c2.739,16.367,11.213,60.51,25.967,82.645c1.033,1.545,2.108,3.294,3.268,5.171
				c10.761,17.417,30.788,49.826,89.165,49.826s78.404-32.41,89.165-49.826c1.161-1.877,2.236-3.627,3.268-5.171
				c14.754-22.135,23.228-66.278,25.967-82.645c10.487-3.2,18.133-12.971,18.133-24.491v-34.133c0-8.687-4.855-20.941-17.647-24.55
				c-1.306-9.933-5.487-27.716-18.987-41.216c-11.034-11.034-35.226-11.034-99.9-11.034c-60.425,0-86.929,8.602-88.03,8.968
				c-4.463,1.493-6.869,6.306-5.393,10.761c1.476,4.471,6.306,6.903,10.76,5.444c0.247-0.085,25.506-8.107,82.662-8.107
				c51.012,0,81.801,0,87.834,6.033c14.259,14.259,14.566,36.437,14.566,36.634c0,4.71,3.823,8.533,8.533,8.533
				c6.869,0,8.431,4.693,8.533,8.533v34.133c0,4.702-3.831,8.533-8.533,8.533c-4.25,0-7.842,3.123-8.448,7.322
				c-0.085,0.58-8.439,58.095-24.252,81.809c-1.135,1.707-2.321,3.61-3.592,5.675c-10.266,16.614-25.779,41.728-74.641,41.728
				s-64.376-25.114-74.641-41.728c-1.271-2.065-2.458-3.968-3.593-5.675c-15.787-23.68-24.166-81.229-24.252-81.809
				c-0.606-4.198-4.198-7.322-8.448-7.322c-4.702,0-8.533-3.831-8.533-8.533v-34.031c0.102-3.942,1.664-8.636,8.533-8.636
				c2.586,0,5.035-1.178,6.656-3.2c1.621-2.014,2.236-4.659,1.673-7.185c-0.631-2.842-14.029-60.979-57.856-94.379h0.179
				c29.474,0,44.476,9.37,44.612,9.463c2.039,1.357,4.557,1.775,6.929,1.143c2.364-0.623,4.344-2.236,5.444-4.429
				c0.828-1.664,6.852-14.942,3.883-44.561c18.278,14.413,33.451,29.525,33.647,29.713c3.337,3.337,8.73,3.337,12.066,0
				c0.913-0.913,18.697-18.901,30.046-45.167c10.095,20.446,15.309,40.943,15.377,41.207c0.905,3.593,4.011,6.187,7.706,6.443
				c3.721,0.213,7.117-1.911,8.499-5.342c0.128-0.333,11.392-27.58,43.571-40.559c-13.628,29.713-7.535,55.236-7.211,56.525
				c0.751,3.004,3.081,5.367,6.076,6.17c3.021,0.785,6.204-0.094,8.354-2.33c0.265-0.273,22.989-23.569,54.11-35.328
				c-10.283,26.752-10.428,45.542-10.428,46.481c0,3.123,1.707,5.999,4.446,7.492c2.731,1.493,6.067,1.374,8.704-0.316
				c7.68-4.941,26.854-15.65,44.919-21.035c-23.629,38.118-23.936,71.97-23.936,73.591c0,4.71,3.823,8.533,8.533,8.533
				c4.71,0,8.533-3.823,8.533-8.533c0-0.393,0.367-40.132,32.265-80c2.048-2.56,2.449-6.076,1.024-9.028
				c-1.417-2.961-4.412-4.838-7.689-4.838c-19.337,0-42.658,10.325-57.634,18.202c2.048-10.018,6.084-24.03,14.071-39.987
				c1.451-2.918,1.118-6.409-0.853-8.994c-1.98-2.586-5.24-3.831-8.457-3.183c-28.459,5.692-52.454,21.777-66.526,33.126
				c0.563-11.691,4.045-28.425,16.657-45.244c2.091-2.79,2.278-6.554,0.478-9.54c-1.801-2.97-5.188-4.548-8.67-4.002
				c-34.415,5.581-54.835,24.482-65.749,38.912c-4.412-12.535-11.392-29.312-21.018-43.759c-1.877-2.807-5.231-4.258-8.559-3.669
				c-3.328,0.572-5.999,3.063-6.818,6.332c-5.47,21.879-18.748,40.294-26.334,49.493c-9.378-8.832-27.537-25.156-45.986-37.453
				c-2.867-1.911-6.605-1.911-9.489,0.009c-2.867,1.92-4.292,5.376-3.61,8.764c4.548,22.767,3.951,37.623,2.714,45.935
				c-12.689-4.89-36.941-10.761-72.559-4.821c-3.738,0.614-6.613,3.627-7.066,7.39S61.424,83.15,64.905,84.644z"/>
			<path d="M307.201,307.202c0-4.71-3.823-8.533-8.533-8.533c-0.205,0-21.197-0.247-35.567-21.803
				c-3.166-4.745-11.034-4.745-14.199,0c-14.097,21.146-34.586,21.786-35.618,21.803c-4.693,0.026-8.482,3.84-8.482,8.533
				c0,4.71,3.823,8.533,8.533,8.533c1.084,0,23.987-0.265,42.667-20.378c18.679,20.113,41.583,20.378,42.667,20.378
				C303.378,315.735,307.201,311.912,307.201,307.202z"/>
			<path d="M332.306,226.767l22.298-14.865c3.917-2.611,4.975-7.91,2.364-11.836c-2.62-3.917-7.91-4.992-11.836-2.364
				l-15.369,10.249c-5.342-11.887-17.237-20.215-31.095-20.215c-13.278,0-24.687,7.697-30.327,18.79
				c-3.26-1.05-7.279-1.724-12.339-1.724c-5.06,0-9.079,0.674-12.339,1.724c-5.641-11.093-17.05-18.79-30.328-18.79
				c-13.858,0-25.754,8.329-31.095,20.215l-15.369-10.249c-3.925-2.628-9.224-1.553-11.836,2.364
				c-2.611,3.925-1.553,9.224,2.364,11.836l22.298,14.865c2.398,16.486,16.495,29.235,33.638,29.235
				c18.261,0,33.084-14.447,33.963-32.495c0.009-0.009,0.017-0.026,0.017-0.043c0.666-0.444,2.918-1.596,8.687-1.596
				c5.769,0,8.021,1.152,8.687,1.596c0,0.017,0.009,0.034,0.017,0.043c0.879,18.048,15.701,32.495,33.963,32.495
				C315.811,256.002,329.908,243.253,332.306,226.767z M213.334,238.935c-9.412,0-17.067-7.654-17.067-17.067
				c0-9.412,7.654-17.067,17.067-17.067c9.412,0,17.067,7.654,17.067,17.067C230.401,231.281,222.746,238.935,213.334,238.935z
				 M298.668,238.935c-9.412,0-17.067-7.654-17.067-17.067c0-9.412,7.654-17.067,17.067-17.067c9.412,0,17.067,7.654,17.067,17.067
				C315.734,231.281,308.08,238.935,298.668,238.935z"/>
			<path d="M196.097,416.462c-0.794-3.994-4.292-6.861-8.363-6.861c-140.399,0-168.892,27.409-178.944,57.66l-8.533,34.133
				c-1.143,4.574,1.638,9.207,6.204,10.351c0.7,0.179,1.391,0.256,2.082,0.256c3.823,0,7.296-2.586,8.269-6.46l8.354-33.51
				c7.339-22.025,31.727-44.527,155.58-45.346l15.693,78.456c0.913,4.617,5.41,7.612,10.035,6.69
				c4.625-0.922,7.62-5.419,6.69-10.035L196.097,416.462z"/>
			<path d="M511.745,501.395l-8.713-34.756c-7.117-21.342-39.987-57.182-178.79-56.678c-4.053,0.008-7.544,2.867-8.337,6.852
				l-17.067,84.975c-0.93,4.625,2.065,9.122,6.682,10.044c4.608,0.905,9.122-2.065,10.044-6.682l15.693-78.114
				c103.714,0.674,148.412,23.484,155.401,44.373l8.533,34.133c0.973,3.874,4.446,6.46,8.269,6.46c0.691,0,1.382-0.077,2.082-0.256
				C510.106,510.602,512.888,505.969,511.745,501.395z"/>
			<path d="M256.257,426.668h-0.085c-4.71,0-8.491,3.823-8.491,8.533s3.866,8.533,8.576,8.533c4.719,0,8.533-3.823,8.533-8.533
				S260.976,426.668,256.257,426.668z"/>
			<path d="M256.257,460.802h-0.085c-4.71,0-8.491,3.823-8.491,8.533s3.866,8.533,8.576,8.533c4.719,0,8.533-3.823,8.533-8.533
				S260.976,460.802,256.257,460.802z"/>
			<path d="M256.257,494.935h-0.085c-4.71,0-8.491,3.823-8.491,8.533s3.866,8.533,8.576,8.533c4.719,0,8.533-3.823,8.533-8.533
				S260.976,494.935,256.257,494.935z"/>
		</g>
	</g>
</g>
<g>
</g>
<g>
</g>
<g>
</g>
<g>
</g>
<g>
</g>
<g>
</g>
<g>
</g>
<g>
</g>
<g>
</g>
<g>
</g>
<g>
</g>
<g>
</g>
<g>
</g>
<g>
</g>
<g>
</g>
</svg>
