<?xml version="1.0" encoding="iso-8859-1"?>
<!-- Generator: Adobe Illustrator 19.0.0, SVG Export Plug-In . SVG Version: 6.00 Build 0)  -->
<svg version="1.1" id="Layer_1" xmlns="http://www.w3.org/2000/svg" xmlns:xlink="http://www.w3.org/1999/xlink" x="0px" y="0px"
	 viewBox="0 0 512 512" style="enable-background:new 0 0 512 512;" xml:space="preserve">
<g>
	<g>
		<g>
			<path d="M256.256,213.333h-0.085c-4.71,0-8.491,3.823-8.491,8.533c0,4.71,3.866,8.533,8.576,8.533
				c4.719,0,8.533-3.823,8.533-8.533C264.789,217.156,260.975,213.333,256.256,213.333z"/>
			<path d="M256.256,110.933h-0.085c-4.71,0-8.491,3.823-8.491,8.533s3.866,8.533,8.576,8.533c4.719,0,8.533-3.823,8.533-8.533
				S260.975,110.933,256.256,110.933z"/>
			<path d="M205.056,264.533h-0.085c-4.71,0-8.491,3.823-8.491,8.533s3.866,8.533,8.576,8.533c4.719,0,8.533-3.823,8.533-8.533
				S209.775,264.533,205.056,264.533z"/>
			<path d="M205.056,162.133h-0.085c-4.71,0-8.491,3.823-8.491,8.533s3.866,8.533,8.576,8.533c4.719,0,8.533-3.823,8.533-8.533
				S209.775,162.133,205.056,162.133z"/>
			<path d="M205.056,76.8h-0.085c-4.71,0-8.491,3.823-8.491,8.533c0,4.71,3.866,8.533,8.576,8.533c4.719,0,8.533-3.823,8.533-8.533
				C213.589,80.623,209.775,76.8,205.056,76.8z"/>
			<path d="M307.456,76.8h-0.085c-4.71,0-8.491,3.823-8.491,8.533c0,4.71,3.866,8.533,8.576,8.533s8.533-3.823,8.533-8.533
				C315.989,80.623,312.166,76.8,307.456,76.8z"/>
			<path d="M469.333,238.933h-51.2c-4.719,0-8.533,3.823-8.533,8.533s3.814,8.533,8.533,8.533H460.8v110.933
				c0,14.114-11.486,25.6-25.6,25.6H76.8c-14.114,0-25.6-11.486-25.6-25.6V256h34.133h0.009c1.126,0,2.202-0.239,3.2-0.648
				c0.35-0.145,0.614-0.401,0.939-0.58c0.606-0.35,1.203-0.674,1.707-1.152c0.316-0.29,0.512-0.666,0.777-1.007
				c0.393-0.503,0.785-0.981,1.05-1.562c0.205-0.418,0.273-0.887,0.401-1.34c0.128-0.469,0.358-0.896,0.41-1.391l8.533-85.333
				c0.239-2.406-0.546-4.787-2.167-6.579c-1.613-1.783-3.908-2.807-6.323-2.807h-3.132l3.063-24.542
				c0.589-4.676-2.731-8.943-7.407-9.523c-4.676-0.597-8.943,2.731-9.523,7.407L73.532,153.6H42.667
				c-2.415,0-4.71,1.024-6.332,2.807c-1.613,1.792-2.398,4.173-2.159,6.579l5.12,51.2c0.469,4.685,4.685,8.149,9.344,7.637
				c4.685-0.469,8.107-4.651,7.637-9.344l-4.181-41.813h32.341l-6.827,68.267H42.667c-4.71,0-8.533,3.823-8.533,8.533v119.467
				c0,23.526,19.14,42.667,42.667,42.667h358.4c23.526,0,42.667-19.14,42.667-42.667V247.467
				C477.867,242.756,474.052,238.933,469.333,238.933z"/>
			<path d="M307.456,264.533h-0.085c-4.71,0-8.491,3.823-8.491,8.533s3.866,8.533,8.576,8.533s8.533-3.823,8.533-8.533
				S312.166,264.533,307.456,264.533z"/>
			<path d="M332.8,494.933h-42.667V435.2c0-4.71-3.814-8.533-8.533-8.533c-4.719,0-8.533,3.823-8.533,8.533v59.733h-34.133V435.2
				c0-4.71-3.823-8.533-8.533-8.533c-4.71,0-8.533,3.823-8.533,8.533v59.733H179.2c-4.71,0-8.533,3.823-8.533,8.533
				S174.49,512,179.2,512h153.6c4.719,0,8.533-3.823,8.533-8.533S337.519,494.933,332.8,494.933z"/>
			<path d="M307.456,162.133h-0.085c-4.71,0-8.491,3.823-8.491,8.533s3.866,8.533,8.576,8.533s8.533-3.823,8.533-8.533
				S312.166,162.133,307.456,162.133z"/>
			<path d="M110.933,341.333h290.133c4.719,0,8.533-3.823,8.533-8.533c0-4.71-3.814-8.533-8.533-8.533h-8.533v-281.6
				C392.533,19.14,373.393,0,349.867,0H162.133c-23.526,0-42.667,19.14-42.667,42.667v281.6h-8.533c-4.71,0-8.533,3.823-8.533,8.533
				C102.4,337.51,106.223,341.333,110.933,341.333z M136.533,42.667c0-14.114,11.486-25.6,25.6-25.6h187.733
				c14.114,0,25.6,11.486,25.6,25.6v281.6H136.533V42.667z"/>
		</g>
	</g>
</g>
<g>
</g>
<g>
</g>
<g>
</g>
<g>
</g>
<g>
</g>
<g>
</g>
<g>
</g>
<g>
</g>
<g>
</g>
<g>
</g>
<g>
</g>
<g>
</g>
<g>
</g>
<g>
</g>
<g>
</g>
</svg>
