<?xml version="1.0" encoding="iso-8859-1"?>
<!-- Generator: Adobe Illustrator 19.0.0, SVG Export Plug-In . SVG Version: 6.00 Build 0)  -->
<svg version="1.1" id="Layer_1" xmlns="http://www.w3.org/2000/svg" xmlns:xlink="http://www.w3.org/1999/xlink" x="0px" y="0px"
	 viewBox="0 0 512 512" style="enable-background:new 0 0 512 512;" xml:space="preserve">
<g>
	<g>
		<g>
			<path d="M469.333,0H42.667C20.736,0,0,20.736,0,42.667v68.267c0,4.71,3.823,8.533,8.533,8.533s8.533-3.823,8.533-8.533V42.667
				c0-12.442,13.158-25.6,25.6-25.6h426.667c12.442,0,25.6,13.158,25.6,25.6v281.6c0,4.71,3.823,8.533,8.533,8.533
				s8.533-3.823,8.533-8.533v-281.6C512,20.736,491.264,0,469.333,0z"/>
			<path d="M426.667,76.8c0-14.114-11.486-25.6-25.6-25.6c-14.114,0-25.6,11.486-25.6,25.6s11.486,25.6,25.6,25.6
				C415.181,102.4,426.667,90.914,426.667,76.8z M392.533,76.8c0-4.702,3.831-8.533,8.533-8.533c4.702,0,8.533,3.831,8.533,8.533
				c0,4.702-3.831,8.533-8.533,8.533C396.365,85.333,392.533,81.502,392.533,76.8z"/>
			<path d="M358.4,76.8c0-14.114-11.486-25.6-25.6-25.6c-14.114,0-25.6,11.486-25.6,25.6s11.486,25.6,25.6,25.6
				C346.914,102.4,358.4,90.914,358.4,76.8z M324.267,76.8c0-4.702,3.831-8.533,8.533-8.533c4.702,0,8.533,3.831,8.533,8.533
				c0,4.702-3.831,8.533-8.533,8.533C328.098,85.333,324.267,81.502,324.267,76.8z"/>
			<path d="M247.467,85.333c4.71,0,8.533-3.823,8.533-8.533s-3.823-8.533-8.533-8.533h-153.6c-4.71,0-8.533,3.823-8.533,8.533
				s3.823,8.533,8.533,8.533H247.467z"/>
			<path d="M8.533,256c4.71,0,8.533-3.823,8.533-8.533V153.6h452.267c4.71,0,8.533-3.823,8.533-8.533
				c0-4.71-3.823-8.533-8.533-8.533H8.533c-4.71,0-8.533,3.823-8.533,8.533v102.4C0,252.177,3.823,256,8.533,256z"/>
			<path d="M281.6,409.6H42.667c-12.442,0-25.6-13.158-25.6-25.6v-93.867H332.8c4.71,0,8.533-3.823,8.533-8.533
				s-3.823-8.533-8.533-8.533H8.533C3.823,273.067,0,276.89,0,281.6V384c0,21.931,20.736,42.667,42.667,42.667H281.6
				c4.71,0,8.533-3.823,8.533-8.533S286.31,409.6,281.6,409.6z"/>
			<path d="M93.867,204.8c-4.71,0-8.533,3.823-8.533,8.533c0,4.71,3.823,8.533,8.533,8.533h153.6c4.71,0,8.533-3.823,8.533-8.533
				c0-4.71-3.823-8.533-8.533-8.533H93.867z"/>
			<path d="M469.333,341.333H460.8V307.2c0-28.237-22.963-51.2-51.2-51.2c-28.237,0-51.2,22.963-51.2,51.2v34.133h-8.533
				c-23.526,0-42.667,19.14-42.667,42.667v85.333c0,23.526,19.14,42.667,42.667,42.667h119.467C492.86,512,512,492.86,512,469.333
				V384C512,360.474,492.86,341.333,469.333,341.333z M375.467,307.2c0-18.825,15.309-34.133,34.133-34.133
				c18.825,0,34.133,15.309,34.133,34.133v34.133h-68.267V307.2z M494.933,469.333c0,14.114-11.486,25.6-25.6,25.6H349.867
				c-14.114,0-25.6-11.486-25.6-25.6V384c0-14.114,11.486-25.6,25.6-25.6h119.467c14.114,0,25.6,11.486,25.6,25.6V469.333z"/>
			<path d="M307.2,213.333c0,14.114,11.486,25.6,25.6,25.6c14.114,0,25.6-11.486,25.6-25.6c0-14.114-11.486-25.6-25.6-25.6
				C318.686,187.733,307.2,199.219,307.2,213.333z M341.333,213.333c0,4.702-3.831,8.533-8.533,8.533
				c-4.702,0-8.533-3.831-8.533-8.533c0-4.702,3.831-8.533,8.533-8.533C337.502,204.8,341.333,208.631,341.333,213.333z"/>
			<path d="M93.867,341.333c-4.71,0-8.533,3.823-8.533,8.533s3.823,8.533,8.533,8.533h153.6c4.71,0,8.533-3.823,8.533-8.533
				s-3.823-8.533-8.533-8.533H93.867z"/>
			<path d="M375.467,213.333c0,14.114,11.486,25.6,25.6,25.6c14.114,0,25.6-11.486,25.6-25.6c0-14.114-11.486-25.6-25.6-25.6
				C386.953,187.733,375.467,199.219,375.467,213.333z M409.6,213.333c0,4.702-3.831,8.533-8.533,8.533
				c-4.702,0-8.533-3.831-8.533-8.533c0-4.702,3.831-8.533,8.533-8.533C405.769,204.8,409.6,208.631,409.6,213.333z"/>
			<path d="M409.6,401.067c-9.412,0-17.067,7.654-17.067,17.067c0,6.289,3.456,11.733,8.533,14.694v19.439
				c0,4.71,3.823,8.533,8.533,8.533s8.533-3.823,8.533-8.533v-19.439c5.077-2.961,8.533-8.405,8.533-14.694
				C426.667,408.721,419.012,401.067,409.6,401.067z"/>
		</g>
	</g>
</g>
<g>
</g>
<g>
</g>
<g>
</g>
<g>
</g>
<g>
</g>
<g>
</g>
<g>
</g>
<g>
</g>
<g>
</g>
<g>
</g>
<g>
</g>
<g>
</g>
<g>
</g>
<g>
</g>
<g>
</g>
</svg>
