<?xml version="1.0" encoding="iso-8859-1"?>
<!-- Generator: Adobe Illustrator 19.0.0, SVG Export Plug-In . SVG Version: 6.00 Build 0)  -->
<svg version="1.1" id="Layer_1" xmlns="http://www.w3.org/2000/svg" xmlns:xlink="http://www.w3.org/1999/xlink" x="0px" y="0px"
	 viewBox="0 0 512.011 512.011" style="enable-background:new 0 0 512.011 512.011;" xml:space="preserve">
<g>
	<g>
		<g>
			<path d="M298.664,307.231c0.009-4.702-3.797-8.533-8.508-8.559c-0.145,0-15.411-0.171-30.336-7.637
				c-2.398-1.195-5.231-1.195-7.629,0c-14.925,7.467-30.191,7.637-30.319,7.637c-4.71,0-8.533,3.823-8.533,8.533
				s3.823,8.533,8.533,8.533c0.725,0,16.845-0.094,34.133-7.646c17.289,7.552,33.408,7.646,34.133,7.646
				C294.841,315.739,298.647,311.933,298.664,307.231z"/>
			<path d="M247.472,324.272c-4.71,0-8.533,3.823-8.533,8.533c0,4.71,3.823,8.533,8.533,8.533h17.067
				c4.71,0,8.533-3.823,8.533-8.533c0-4.71-3.823-8.533-8.533-8.533H247.472z"/>
			<path d="M256.006,187.739c84.813,0,170.667-17.587,170.667-51.2c0-13.713-13.286-25.199-39.492-34.133
				c-4.463-1.527-9.318,0.87-10.829,5.325c-1.528,4.463,0.862,9.31,5.316,10.829c22.059,7.518,27.938,14.839,27.938,17.98
				c0,11.58-54.221,34.133-153.6,34.133s-153.6-22.554-153.6-34.133c0-4.599,14.473-16.597,55.868-25.361l-4.309,14.379
				c-1.357,4.514,1.212,9.267,5.726,10.624c4.514,1.357,9.267-1.203,10.624-5.726l8.448-28.169c0.026-0.094,0.068-0.188,0.085-0.29
				l17.161-57.216c0.29-1.135,7.518-27.708,34.398-27.708c12.962,0,19.396,5.88,19.567,6.033c3.251,3.251,8.61,3.243,11.972,0.094
				c0.265-0.247,6.699-6.127,19.661-6.127c26.88,0,34.108,26.573,34.492,28.049l23.398,77.986
				c-12.22,4.617-41.139,13.431-83.49,13.431c-39.458,0-55.825-7.595-55.919-7.637c-4.224-2.108-9.335-0.384-11.452,3.823
				c-2.108,4.215-0.393,9.335,3.823,11.452c0.768,0.375,19.371,9.429,63.548,9.429c61.047,0,96.213-17.237,97.681-17.963
				c3.712-1.86,5.555-6.118,4.361-10.086L332.55,40.599c-3.507-14.037-18.671-40.593-50.944-40.593
				c-11.878,0-20.395,3.482-25.6,6.554c-5.205-3.072-13.722-6.554-25.6-6.554c-32.273,0-47.437,26.556-50.842,40.218l-15.735,52.437
				c-31.556,5.803-78.49,18.662-78.49,43.878C85.339,170.152,171.193,187.739,256.006,187.739z"/>
			<path d="M340.87,235.022l31.189-23.39c3.772-2.825,4.531-8.175,1.707-11.947c-2.825-3.763-8.158-4.54-11.947-1.707
				l-21.751,16.316c-3.251-10.402-12.868-18.022-24.329-18.022h-34.133c-14.114,0-25.6,11.486-25.6,25.6
				c0-14.114-11.486-25.6-25.6-25.6h-34.133c-11.46,0-21.069,7.62-24.329,18.022l-21.751-16.316
				c-3.772-2.833-9.122-2.057-11.947,1.707c-2.825,3.772-2.065,9.122,1.707,11.947l31.189,23.39
				c2.278,16.623,16.418,29.517,33.664,29.517h17.067c18.825,0,34.133-15.309,34.133-34.133c0,18.825,15.309,34.133,34.133,34.133
				h17.067C324.452,264.539,338.591,251.645,340.87,235.022z M238.939,230.406c0,9.412-7.654,17.067-17.067,17.067h-17.067
				c-9.412,0-17.067-7.654-17.067-17.067v-8.533c0-4.702,3.831-8.533,8.533-8.533h34.133c4.702,0,8.533,3.831,8.533,8.533V230.406z
				 M273.072,230.406v-8.533c0-4.702,3.831-8.533,8.533-8.533h34.133c4.702,0,8.533,3.831,8.533,8.533v8.533
				c0,9.412-7.654,17.067-17.067,17.067h-17.067C280.727,247.472,273.072,239.818,273.072,230.406z"/>
			<path d="M511.571,500.776l-8.533-25.6c-10.189-30.532-32.93-65.57-119.031-65.57c-4.71,0-8.533,3.823-8.533,8.533
				s3.823,8.533,8.533,8.533c84.847,0,96.998,36.403,102.835,53.897l8.533,25.6c1.195,3.576,4.523,5.837,8.098,5.837
				c0.887,0,1.801-0.137,2.697-0.435C510.64,510.077,513.064,505.247,511.571,500.776z"/>
			<path d="M392.539,230.406v-25.6c0-4.71-3.823-8.533-8.533-8.533c-4.71,0-8.533,3.823-8.533,8.533v25.6
				c0,4.702-3.831,8.533-8.533,8.533c-4.25,0-7.842,3.123-8.448,7.322c-0.085,0.58-8.439,58.095-24.252,81.809
				c-1.135,1.707-2.321,3.61-3.592,5.675c-10.266,16.614-25.779,41.728-74.641,41.728s-64.375-25.114-74.641-41.728
				c-1.271-2.065-2.458-3.968-3.593-5.675c-15.787-23.68-24.166-81.229-24.252-81.809c-0.606-4.198-4.198-7.322-8.448-7.322
				c-4.702,0-8.533-3.831-8.533-8.533v-25.6c0-4.71-3.823-8.533-8.533-8.533s-8.533,3.823-8.533,8.533v25.6
				c0,11.52,7.646,21.291,18.133,24.491c2.739,16.367,11.213,60.51,25.967,82.645c1.033,1.545,2.108,3.294,3.268,5.171
				c10.761,17.417,30.788,49.826,89.165,49.826s78.404-32.41,89.165-49.826c1.161-1.877,2.236-3.627,3.268-5.171
				c14.754-22.135,23.228-66.278,25.967-82.645C384.893,251.696,392.539,241.926,392.539,230.406z"/>
			<path d="M128.006,409.606c-86.101,0-108.843,35.038-119.031,65.57l-8.533,25.6c-1.493,4.471,0.93,9.301,5.402,10.795
				c0.896,0.299,1.809,0.435,2.697,0.435c3.575,0,6.903-2.261,8.098-5.837l8.533-25.6c5.837-17.493,17.988-53.897,102.835-53.897
				c4.71,0,8.533-3.823,8.533-8.533S132.716,409.606,128.006,409.606z"/>
			<path d="M353.687,410.51l-34.133-17.075c-3.063-1.519-6.75-1.075-9.37,1.161l-54.178,46.438l-54.178-46.438
				c-2.611-2.236-6.315-2.688-9.37-1.161l-34.133,17.075c-2.56,1.28-4.309,3.755-4.659,6.596c-0.341,2.833,0.751,5.658,2.918,7.518
				l59.733,51.192c1.613,1.382,3.584,2.057,5.555,2.057c2.398,0,4.796-1.015,6.477-2.978c3.072-3.584,2.654-8.969-0.922-12.032
				l-49.98-42.829l17.579-8.798l52.446,44.962v47.275c0,4.71,3.823,8.533,8.533,8.533s8.533-3.823,8.533-8.533v-47.275
				l52.446-44.962l17.579,8.798l-49.98,42.829c-3.575,3.063-3.994,8.448-0.922,12.032c1.681,1.963,4.079,2.978,6.477,2.978
				c1.971,0,3.942-0.674,5.555-2.057l59.733-51.192c2.167-1.86,3.26-4.685,2.918-7.518
				C357.996,414.265,356.247,411.79,353.687,410.51z"/>
		</g>
	</g>
</g>
<g>
</g>
<g>
</g>
<g>
</g>
<g>
</g>
<g>
</g>
<g>
</g>
<g>
</g>
<g>
</g>
<g>
</g>
<g>
</g>
<g>
</g>
<g>
</g>
<g>
</g>
<g>
</g>
<g>
</g>
</svg>
